<svg xmlns="http://www.w3.org/2000/svg" viewBox="0 0 1000 1000"><defs><style>.cls-1{fill:#fff;}</style></defs><g id="Layer_2" data-name="Layer 2"><g id="Layer_1-2" data-name="Layer 1"><rect width="1000" height="1000" rx="165"/><path class="cls-1" d="M248.72,418.62c0-64.28,97-178.69,164.53-178.69,37,0,46.85,13.08,46.85,45.76,0,27.24-14.16,103.52-43.58,156.9,79.54-137.28,154.72-186.32,202.66-186.32,50.12,0,75.18,32.69,75.18,75.19,0,29.42-8.71,67.55-31.6,119.85-19.61,47.94-54.47,125.31-54.47,152.54,0,12,5.44,16.35,15.25,16.35,21.79,0,90.44-55.57,158-152.55,20.7,0,42.49,14.17,42.49,36,0,68.65-184.14,252.79-284.38,252.79-64.29,0-86.08-28.33-86.08-88.26,0-71.91,55.57-182,55.57-205.93q0-13.08-13.07-13.08c-9.81,0-45.77,16.35-88.26,75.18-15.25,83.9-21.79,132.94-25.06,207-10.9,10.89-18.52,14.16-43.59,14.16-61,0-105.69-57.75-106.77-123.12,0-41.41,8.71-86.08,27.24-136.2C250.9,465.48,248.72,440.42,248.72,418.62Z"/></g></g></svg>